<?xml version="1.0" encoding="UTF-8" standalone="no"?>
<svg
   width="682.66998"
   height="682.66998"
   version="1.1"
   viewBox="0 0 682.67 682.67"
   id="svg1"
   xmlns="http://www.w3.org/2000/svg"
   xmlns:svg="http://www.w3.org/2000/svg">
  <defs
     id="defs1" />
  <path
     id="neck"
     style="fill:#29353b;fill-opacity:1"
     d="m 164.93164,248.36719 -0.002,0.002 c 3.2676,65.856 0.66264,177.81063 70.70898,193.39063 -18.775,-2.7788 -25.41423,-2.12058 -57.11523,-11.85938 5.1113,16.943 19.44653,30.81352 29.89453,45.97852 -10.069,-10.423 -15.02772,-14.1191 -30.76172,-31.9961 1.3413,3.5386 7.78505,10.91122 12.62695,15.69922 -1.9133,6.1149 -7.43896,27.65661 -26.94336,41.97461 9.3497,10.635 36.76228,36.32219 38.23828,43.36719 12.58501,3.9059 19.10282,11.85486 22.13282,22.13086 14.663,14.275 27.76518,26.84747 46.86718,51.48047 13.58101,-0.5214 36.82232,-20.71983 56.69532,-31.67383 23.959,-89.722 -2.52621,-154.5886 -11.90821,-177.8086 -12.433,61.035 -23.46642,92.52352 -33.23242,97.22852 16.375,-26.171 21.74078,-62.95253 19.80078,-106.76953 -15.803,-47.82 -47.36465,-66.22519 -76.72265,-88.74219 9.3769,15.248 21.10262,28.81775 33.76562,41.71875 -15.238,-11.389 -31.39947,-22.16228 -42.60547,-36.23828 l 12.73047,26.33984 c -30.688,-27.755 -46.03792,-61.53465 -64.16992,-94.22265 z M 482.9375,324.2793 c -38.16965,-0.66692 -84.89375,28.27758 -95.09375,47.47851 l -0.004,0.002 c 12.353,68.395 5.58656,85.80329 5.12696,120.02929 L 386.25,452.54688 c -3.00892,55.34356 -18.16211,93.73667 -18.16211,93.73667 l -11.30101,27.58456 c 0,0 20.5822,-8.71856 29.23656,16.82134 l -0.0762,0.14063 c 42.395,-61.265 97.92292,-85.09995 146.41992,-96.75196 -6.7887,-8.93659 -13.13394,-16.21637 -19.21094,-22.48437 -4.7931,5.4534 -9.61162,10.87347 -14.29102,16.48047 l -3.0039,-6.89453 6.71679,-12.19727 c -4.56459,4.0553 -9.35451,8.18709 -13.25781,12.02149 -1.3377,-4.714 -2.56499,-9.42808 -1.59179,-14.14258 l -7.95508,12.90429 c -2.1976,-5.33609 -1.20046,-10.33612 1.06054,-15.20312 -3.8964,4.2304 -7.57797,8.82026 -10.07617,15.38086 -0.71767,-7.0234 -0.65075,-13.63017 3.53516,-22.45117 l -11.66602,17.67773 -3.53515,-7.95508 -4.77344,-0.52929 c 4.3469,-4.7979 6.86384,-10.96944 9.36914,-17.14844 -6.8858,4.6705 -13.71414,9.60902 -21.74414,9.01562 l -6.89453,-9.58203 c 30.93341,-33.88087 49.16506,-98.62054 55.39453,-124.15234 -2.45525,-0.31934 -4.96122,-0.4946 -7.50586,-0.53906 z" />
  <path
     id="coat"
     d="m 558.68,490.64 c -33.277,0.0264 -138.47,27.327 -181.01,115.54 10.39,2.4692 47.569,57.741 42.416,76.479 h 262.58 v -78.616 c -23.553,-15.656 -21.3,-26.19 -46.102,-34.102 -37.089,-11.831 -41.122,-79.332 -77.885,-79.303 z"
     style="fill:#1c2427;fill-opacity:1" />
  <path
     id="scrunchie"
     d="m 504.5,0.0058594 c -10.321,21.9549996 -12.255,45.1019996 -9.8789,68.9369996 29.545,27.045 46.537,49.068001 57.275,68.590001 7.875,8.9274 22.726,12.912 20.506,28.99 7.817,-3.1253 15.343,-7.5664 24.043,-6.7168 -17.262,-12.843 -37.265,-25.788 -42.428,-38.184 12.192,-36.409001 9.3282,-79.296001 7.8672,-121.6200006 z M 447.51,0 398.906,0.03125 c 6.1477,11.022 11.001,18.665 20.761,41.159 12.391,3.7323 28.094,14.758 50.824,13.964 -7.8377,-12.03 -15.999,-24.171 -21.389,-37.321 5.5064,5.1785 8.5656,13.293 17.809,18.01 -5.8584,-12.916 -13.493,-24.475 -19.401,-35.842 z"
     fill="#fd352c"
     style="fill:#00bcd4;fill-opacity:1" />
  <path
     id="hairs"
     d="m 177.16,0 c -20.839,32.12 -39.834,59.81 18.631,77.184 -87.21,47.934 -116.97,143.8 -126.84,223.51 -7.0582,37.669 -10.522,78.568 -59.928,100.76 30.038,-11.224 37.612,-20.574 54.447,-47.729 -19.827,77.131 18.203,145.44 37.301,154.33 -37.058,-36.744 -32.529,-120.74 -21.215,-176.6 -4.0754,78.007 55.479,175.52 18.209,263.22 12.898,-22.718 19.167,-57.59 26.693,-90.156 3.3696,52.952 31.418,97.632 56.744,113.67 -37.575,-34.646 -46.02,-75.765 -54.623,-116.85 7.3869,16.27 11.378,31.569 34.471,52.326 24.241,45.502 36.74,93.442 74.6,111.55 -23.658,-21.58 -59.404,-63.03 -48.705,-139.17 l -23.596,-24.484 c 14.67,-9.9955 24.234,-26.123 26.945,-41.973 -4.8419,-4.788 -11.286,-12.163 -12.627,-15.701 15.733,17.877 20.691,21.573 30.76,31.996 -10.448,-15.164 -24.781,-29.034 -29.893,-45.977 31.701,9.7391 38.341,9.0806 57.115,11.859 -70.046,-15.582 -67.441,-127.54 -70.709,-193.39 18.132,32.687 33.482,66.468 64.17,94.223 l -12.729,-26.34 c 11.206,14.077 27.366,24.85 42.604,36.238 -12.662,-12.901 -24.389,-26.471 -33.766,-41.719 29.358,22.517 60.92,40.922 76.723,88.742 1.9406,43.821 -3.4254,80.603 -19.801,106.77 9.7666,-4.705 20.801,-36.193 33.234,-97.229 45.757,124.89 5.4415,159.02 -4.3691,273.61 13.75,-69.119 69.443,-112.74 75.258,-230.12 l 6.7168,39.244 c 0.45968,-34.228 7.2261,-51.636 -5.127,-120.03 10.905,-21.529 66.447,-51.116 102.6,-46.939 -10.172,37.592 -25.607,90.363 -55.919,124.88 l 7.4092,8.8573 c 8.0301,0.59337 14.858,-4.3451 21.744,-9.0156 -2.5054,6.179 -5.0222,12.351 -9.3691,17.148 l 4.7734,0.52929 3.5352,7.9551 11.666,-17.678 c -4.1859,8.8212 -4.2528,15.428 -3.5352,22.451 2.4984,-6.5605 6.1798,-11.15 10.076,-15.381 -2.2609,4.8668 -3.2582,9.867 -1.0606,15.203 l 7.9551,-12.904 c -0.9732,4.714 0.25411,9.4285 1.5918,14.143 3.9031,-3.8348 8.6932,-7.9662 13.258,-12.021 l -6.7168,12.197 3.0039,6.8945 c 27.136,-32.517 57.355,-60.863 77.074,-103.41 1.7757,12.61 -4.2119,25.22 -7.0703,37.83 7.1831,-30.179 62.173,-54.018 22.133,-215 19.253,45.578 57.849,82.364 91.688,121.31 v -264.29 c -9.3611,-9.5329 -18.723,-17.36 -28.084,-24.572 9.2771,6.0141 18.33,10.901 28.064,19.203 v -13.656 c -27.916,-14.164 -57.648,-33.777 -83.748,-42.492 l 9.3027,-3.0059 h -160.71 c 5.9083,11.367 13.542,22.926 19.4,35.842 -7.9348,-4.0483 -11.317,-10.591 -15.598,-15.641 -0.16266,-0.18426 -0.32899,-0.38004 -0.49023,-0.56055 -0.55479,-0.62808 -1.1187,-1.2424 -1.7207,-1.8086 5.3907,13.15 13.551,25.292 21.389,37.322 -22.73,0.7943 -38.431,-10.233 -50.822,-13.965 -0.0635,-0.14632 -0.11662,-0.25923 -0.17969,-0.4043 -57.386,-14.293 -125.77,-10.325 -217.99,33.215 -25.417,-16.392 -10.35,-46.542 -3.2031,-74 z m 384.73,0.0019531 c 1.461,42.3249999 4.3247,85.2119999 -7.8672,121.6199969 5.1627,12.395 25.166,25.34 42.428,38.184 -8.7003,-0.84963 -16.226,3.5915 -24.043,6.7168 2.2199,-16.078 -12.631,-20.063 -20.506,-28.99 -10.739,-19.522 -27.73,-41.544997 -57.275,-68.589997 -2.3765,-23.836 -0.44184,-46.983 9.8789,-68.9369999 z"
     fill="#ababab"
     style="fill:#1c2427;fill-opacity:1" />
</svg>
